<?xml version="1.0" encoding="UTF-8" standalone="no"?>
<svg
   viewBox="0 0 150 150"
   version="1.1"
   id="svg134"
   sodipodi:docname="github.svg"
   inkscape:version="1.2.1 (9c6d41e, 2022-07-14)"
   xmlns:inkscape="http://www.inkscape.org/namespaces/inkscape"
   xmlns:sodipodi="http://sodipodi.sourceforge.net/DTD/sodipodi-0.dtd"
   xmlns="http://www.w3.org/2000/svg"
   xmlns:svg="http://www.w3.org/2000/svg">
  <defs
     id="defs138" />
  <sodipodi:namedview
     id="namedview136"
     pagecolor="#ffffff"
     bordercolor="#000000"
     borderopacity="0.25"
     inkscape:showpageshadow="2"
     inkscape:pageopacity="0.0"
     inkscape:pagecheckerboard="0"
     inkscape:deskcolor="#d1d1d1"
     showgrid="false"
     inkscape:zoom="1.6580615"
     inkscape:cx="-25.029229"
     inkscape:cy="158.31741"
     inkscape:window-width="1440"
     inkscape:window-height="847"
     inkscape:window-x="0"
     inkscape:window-y="25"
     inkscape:window-maximized="0"
     inkscape:current-layer="svg134" />
  <!--!Font Awesome Free 6.5.1 by @fontawesome - https://fontawesome.com License - https://fontawesome.com/license/free Copyright 2024 Fonticons, Inc.-->
  <path
     d="m 50.171371,117.7621 c 0,0.60484 -0.695565,1.08871 -1.572581,1.08871 -0.997984,0.0907 -1.693548,-0.39315 -1.693548,-1.08871 0,-0.60484 0.695564,-1.08871 1.572581,-1.08871 0.907258,-0.0907 1.693548,0.39314 1.693548,1.08871 z m -9.405242,-1.36089 c -0.211694,0.60484 0.393145,1.3004 1.300403,1.48185 0.786291,0.30242 1.693549,0 1.875,-0.60483 0.181452,-0.60484 -0.393145,-1.30041 -1.300403,-1.57258 -0.78629,-0.2117 -1.663306,0.0907 -1.875,0.69556 z m 13.366936,-0.51411 c -0.877017,0.21169 -1.481855,0.78629 -1.39113,1.48185 0.09073,0.60484 0.877017,0.99799 1.784275,0.78629 0.877016,-0.21169 1.481855,-0.78629 1.391129,-1.39113 -0.09073,-0.57459 -0.907258,-0.96774 -1.784274,-0.87701 z M 74.032258,0 C 32.086694,0 0,31.844758 0,73.790323 c 0,33.538307 21.108871,62.237907 51.260081,72.338707 3.870967,0.69557 5.231854,-1.69355 5.231854,-3.65927 0,-1.875 -0.09072,-12.21774 -0.09072,-18.56855 0,0 -21.169355,4.53629 -25.61492,-9.0121 0,0 -3.44758,-8.8004 -8.407258,-11.06855 0,0 -6.925403,-4.74798 0.483871,-4.65725 0,0 7.530242,0.60484 11.673387,7.80242 6.622984,11.67338 17.721775,8.31653 22.046371,6.32056 0.695565,-4.83871 2.661291,-8.19556 4.83871,-10.19153 -16.905242,-1.875 -33.961694,-4.3246 -33.961694,-33.417341 0,-8.316532 2.298388,-12.489919 7.137097,-17.8125 C 33.810484,49.899194 31.239919,41.794355 35.383065,31.330645 41.703629,29.364919 56.25,39.495968 56.25,39.495968 c 6.048387,-1.693549 12.550403,-2.570565 18.991935,-2.570565 6.441533,0 12.943549,0.877016 18.991936,2.570565 0,0 14.546369,-10.161291 20.866939,-8.165323 4.14314,10.493952 1.57258,18.568549 0.78629,20.534274 4.83871,5.352823 7.80242,9.52621 7.80242,17.8125 0,29.183471 -17.8125,31.512101 -34.717746,33.417341 2.782258,2.38911 5.141129,6.9254 5.141129,14.03226 0,10.19153 -0.09073,22.80242 -0.09073,25.28225 0,1.96573 1.391129,4.35484 5.231855,3.65928 C 129.49597,136.02823 150,107.32863 150,73.790323 150,31.844758 115.97782,0 74.032258,0 Z M 29.395161,104.30444 c -0.393145,0.30241 -0.302419,0.99798 0.211694,1.57258 0.483871,0.48387 1.179435,0.69556 1.57258,0.30242 0.393146,-0.30242 0.30242,-0.99799 -0.211693,-1.57259 -0.483871,-0.48387 -1.179436,-0.69556 -1.572581,-0.30241 z m -3.266129,-2.4496 c -0.211693,0.39314 0.09073,0.87701 0.695565,1.17943 0.483871,0.30242 1.088709,0.2117 1.300403,-0.21169 0.211694,-0.39314 -0.09073,-0.87702 -0.695565,-1.17943 -0.604838,-0.18146 -1.088709,-0.0907 -1.300403,0.21169 z m 9.798387,10.76613 c -0.483871,0.39314 -0.302419,1.3004 0.393146,1.875 0.695564,0.69556 1.57258,0.78629 1.965725,0.30242 0.393145,-0.39315 0.211694,-1.30041 -0.393145,-1.875 -0.665322,-0.69557 -1.57258,-0.78629 -1.965726,-0.30242 z m -3.44758,-4.44557 c -0.483871,0.30242 -0.483871,1.08871 0,1.78428 0.483871,0.69556 1.300403,0.99798 1.693548,0.69556 0.483871,-0.39314 0.483871,-1.17943 0,-1.875 C 33.75,108.08468 32.96371,107.78226 32.479839,108.1754 Z"
     id="path132"
     style="stroke-width:0.302419" />
</svg>
