<?xml version="1.0" encoding="UTF-8" standalone="no"?>
<svg
   viewBox="0 0 200 150"
   version="1.1"
   id="svg1489"
   sodipodi:docname="envelope-regular.svg"
   inkscape:version="1.2.1 (9c6d41e, 2022-07-14)"
   xmlns:inkscape="http://www.inkscape.org/namespaces/inkscape"
   xmlns:sodipodi="http://sodipodi.sourceforge.net/DTD/sodipodi-0.dtd"
   xmlns="http://www.w3.org/2000/svg"
   xmlns:svg="http://www.w3.org/2000/svg">
  <defs
     id="defs1493" />
  <sodipodi:namedview
     id="namedview1491"
     pagecolor="#ffffff"
     bordercolor="#000000"
     borderopacity="0.25"
     inkscape:showpageshadow="2"
     inkscape:pageopacity="0.0"
     inkscape:pagecheckerboard="0"
     inkscape:deskcolor="#d1d1d1"
     showgrid="false"
     inkscape:zoom="0.85788377"
     inkscape:cx="-136.96494"
     inkscape:cy="159.11246"
     inkscape:window-width="1440"
     inkscape:window-height="847"
     inkscape:window-x="0"
     inkscape:window-y="25"
     inkscape:window-maximized="0"
     inkscape:current-layer="svg1489" />
  <!--!Font Awesome Free 6.5.1 by @fontawesome - https://fontawesome.com License - https://fontawesome.com/license/free Copyright 2024 Fonticons, Inc.-->
  <path
     d="m 25,18.75 c -3.4375,0 -6.25,2.8125 -6.25,6.25 v 8.632812 L 86.132812,88.94531 c 8.085938,6.64063 19.687498,6.64063 27.773438,0 L 181.25,33.632812 V 25 c 0,-3.4375 -2.8125,-6.25 -6.25,-6.25 z M 18.75,57.89063 V 125 c 0,3.4375 2.8125,6.25 6.25,6.25 h 150 c 3.4375,0 6.25,-2.8125 6.25,-6.25 V 57.89063 l -55.46875,45.54687 c -15,12.30469 -36.601564,12.30469 -51.5625,0 z M 0,25 C 0,11.210937 11.210938,0 25,0 h 150 c 13.78906,0 25,11.210937 25,25 v 100 c 0,13.78906 -11.21094,25 -25,25 H 25 C 11.210938,150 0,138.78906 0,125 Z"
     id="path1487"
     style="stroke-width:0.390624" />
</svg>
