<?xml version="1.0" encoding="UTF-8" standalone="no"?>
<svg
   viewBox="0 0 150 150"
   version="1.1"
   id="svg421"
   sodipodi:docname="linkedin.svg"
   inkscape:version="1.2.1 (9c6d41e, 2022-07-14)"
   xmlns:inkscape="http://www.inkscape.org/namespaces/inkscape"
   xmlns:sodipodi="http://sodipodi.sourceforge.net/DTD/sodipodi-0.dtd"
   xmlns="http://www.w3.org/2000/svg"
   xmlns:svg="http://www.w3.org/2000/svg">
  <defs
     id="defs425" />
  <sodipodi:namedview
     id="namedview423"
     pagecolor="#ffffff"
     bordercolor="#000000"
     borderopacity="0.25"
     inkscape:showpageshadow="2"
     inkscape:pageopacity="0.0"
     inkscape:pagecheckerboard="0"
     inkscape:deskcolor="#d1d1d1"
     showgrid="false"
     inkscape:zoom="0.4609375"
     inkscape:cx="-65.084746"
     inkscape:cy="256"
     inkscape:window-width="1309"
     inkscape:window-height="456"
     inkscape:window-x="0"
     inkscape:window-y="25"
     inkscape:window-maximized="0"
     inkscape:current-layer="svg421" />
  <!--!Font Awesome Free 6.5.1 by @fontawesome - https://fontawesome.com License - https://fontawesome.com/license/free Copyright 2024 Fonticons, Inc.-->
  <path
     d="M 139.28571,0 H 10.680804 C 4.7879464,0 0,4.854911 0,10.814732 V 139.18527 C 0,145.14509 4.7879464,150 10.680804,150 H 139.28571 C 145.17857,150 150,145.14509 150,139.18527 V 10.814732 C 150,4.854911 145.17857,0 139.28571,0 Z M 45.334821,128.57143 H 23.102679 V 56.986607 H 45.368304 V 128.57143 Z M 34.21875,47.209821 c -7.131696,0 -12.890625,-5.79241 -12.890625,-12.890625 0,-7.098214 5.758929,-12.890625 12.890625,-12.890625 7.098214,0 12.890625,5.792411 12.890625,12.890625 0,7.131697 -5.758929,12.890625 -12.890625,12.890625 z m 94.45312,81.361609 H 106.43973 V 93.75 c 0,-8.30357 -0.16741,-18.98437 -11.551337,-18.98437 -11.584822,0 -13.359375,9.04017 -13.359375,18.38169 v 35.42411 H 59.296875 V 56.986607 H 80.625 v 9.776786 h 0.301339 c 2.979911,-5.625 10.245536,-11.551339 21.060271,-11.551339 22.5,0 26.68526,14.832586 26.68526,34.118306 z"
     id="path419"
     style="stroke-width:0.334821" />
</svg>
